<svg style="fill:#ffffff;" height="494pt" viewBox="-139 0 494 494" width="494pt" xmlns="http://www.w3.org/2000/svg"><path d="m207.898438 0h-199.796876c-4.421874 0-8.101562 3.15625-8.101562 7.574219v72.34375c.0390625 4.453125 3.644531 8.054687 8.101562 8.082031h6.898438v44.742188c-.007812 4.472656 3.550781 8.136718 8.023438 8.257812h13.976562v345.425781c0 4.417969 4 7.574219 8.417969 7.574219h125.164062c4.417969 0 8.417969-3.15625 8.417969-7.574219v-345.425781h13.976562c4.472657-.121094 8.03125-3.785156 8.023438-8.257812v-44.742188h6.898438c4.457031-.027344 8.0625-3.628906 8.101562-8.082031v-72.34375c0-4.417969-3.675781-7.574219-8.101562-7.574219zm-191.898438 16h184v56h-184zm37 462v-52h110v52zm110-68h-110v-269h110zm22-285h-154v-37h154zm0 0"/><path d="m131 191c0-4.417969-3.582031-8-8-8h-31c-4.417969 0-8 3.582031-8 8v91c0 4.417969 3.582031 8 8 8h31c4.417969 0 8-3.582031 8-8zm-31 8h15v75h-15zm0 0"/></svg>
